<svg class="jsx-2263963463 artboard"><svg viewBox="-41.64645528643227 0 83.29291057286454 100" xmlns="http://www.w3.org/2000/svg" xmlns:xlink="http://www.w3.org/1999/xlink" version="1.1" class="jsx-2263963463 artboard-inner" style="width: 244.048px; height: 293px; max-height: 100%;"><g transform="translate(-42.383395459836386 98.50746268656718) scale(2.0729684908789388)" fill="#232323"><g id="line1"><path d="M12.312-25.056L8.712-25.056L8.712-42.048L16.776-42.048C17.448-42.048 17.784-42.432 17.784-43.200C17.784-44.496 17.592-45.816 17.208-47.160L13.608-46.800L4.464-46.800C3.120-46.800 2.088-46.440 1.368-45.720C0.648-45.000 0.312-44.016 0.360-42.768C1.368-42.768 2.064-42.540 2.448-42.084C2.832-41.628 3.024-40.872 3.024-39.816L3.024-4.248C3.024-0.936 4.296 0.720 6.840 0.720C9.912 0.720 11.448-0.648 11.448-3.384C10.440-3.384 9.732-3.588 9.324-3.996C8.916-4.404 8.712-5.112 8.712-6.120L8.712-20.304L15.768-20.304C16.440-20.304 16.776-20.688 16.776-21.456C16.776-22.752 16.584-24.072 16.200-25.416C15.336-25.176 14.040-25.056 12.312-25.056Z"></path><path d="M33.372-22.608C32.532-15.168 31.584-9.072 30.528-4.320C29.472-8.640 28.644-14.496 28.044-21.888C27.444-29.280 27.144-36.168 27.144-42.552C27.144-45.864 25.872-47.520 23.328-47.520C20.160-47.520 18.576-46.152 18.576-43.416C19.584-43.416 20.292-43.212 20.700-42.804C21.108-42.396 21.312-41.688 21.312-40.680C21.312-27.000 22.608-14.592 25.200-3.456C25.728-1.152 26.736 0 28.224 0L32.472 0C33.816 0 34.824-1.152 35.496-3.456C36.840-8.256 38.016-14.964 39.024-23.580C40.032-32.196 40.536-39.552 40.536-45.648C40.536-46.608 40.080-47.088 39.168-47.088C37.584-47.088 35.904-46.992 34.128-46.800C34.464-45.216 34.632-42.648 34.632-39.096C34.632-35.544 34.212-30.048 33.372-22.608Z"></path></g></g></svg></svg>